HIERARCHY
ROOT Hips
{
	OFFSET 0.000000 0.000000 0.000000
	CHANNELS 6 Xposition Yposition Zposition Zrotation Yrotation Xrotation 
	JOINT LHipJoint
	{
		OFFSET 0.000000 0.000000 0.000000
		CHANNELS 3 Zrotation Yrotation Xrotation
		JOINT LeftUpLeg
		{
			OFFSET 1.363060 -1.794630 0.839290
			CHANNELS 3 Zrotation Yrotation Xrotation
			JOINT LeftLeg
			{
				OFFSET 2.448110 -6.726130 0.000000
				CHANNELS 3 Zrotation Yrotation Xrotation
				JOINT LeftFoot
				{
					OFFSET 2.562200 -7.039590 0.000000
					CHANNELS 3 Zrotation Yrotation Xrotation
					JOINT LeftToeBase
					{
						OFFSET 0.157640 -0.433110 2.322550
						CHANNELS 3 Zrotation Yrotation Xrotation
						End Site
						{
							OFFSET 0.000000 0.000000 0.000000
						}
					}
				}
			}
		}
	}
	JOINT RHipJoint
	{
		OFFSET 0.000000 0.000000 0.000000
		CHANNELS 3 Zrotation Yrotation Xrotation
		JOINT RightUpLeg
		{
			OFFSET -1.305520 -1.794630 0.839290
			CHANNELS 3 Zrotation Yrotation Xrotation
			JOINT RightLeg
			{
				OFFSET -2.542530 -6.985550 0.000000
				CHANNELS 3 Zrotation Yrotation Xrotation
				JOINT RightFoot
				{
					OFFSET -2.568260 -7.056230 0.000000
					CHANNELS 3 Zrotation Yrotation Xrotation
					JOINT RightToeBase
					{
						OFFSET -0.164730 -0.452590 2.363150
						CHANNELS 3 Zrotation Yrotation Xrotation
						End Site
						{
							OFFSET 0.000000 0.000000 0.000000
						}
					}
				}
			}
		}
	}
}
MOTION
Frames: 27
Frame Time: 0.008333
19.021212 16.827207 2.201874 86.183223 -87.783375 -35.252463 -8.554312 -0.690139 3.402985 -7.033351 -8.074078 -55.848305 -2.544884 -2.000193 9.640652 3.367199 13.917673 -8.857603 0.835900 -0.000000 -46.903100 8.730657 0.922839 4.142247 2.992225 5.405346 -57.709203 2.676806 1.179814 13.287224 -3.214533 -9.022131 -13.011381 -0.224800 -0.000000 -59.681700
18.998186 16.753533 2.203020 87.138365 -87.551780 -35.000849 -8.431772 -0.664433 3.590133 -6.829134 -9.004704 -58.254760 -2.519134 -1.838460 11.955515 3.596819 14.105858 -10.442679 0.446200 0.000000 -46.864500 8.713315 0.993202 4.285717 2.454307 5.645016 -60.308044 2.649147 0.874067 15.827761 -3.316203 -8.803049 -14.350982 0.024700 0.000000 -59.326600
18.974504 16.668240 2.204698 87.402082 -87.303173 -34.019957 -8.313577 -0.620020 3.796881 -6.631344 -9.933953 -60.849335 -2.499377 -1.642337 14.481490 3.819406 14.200699 -12.086918 0.026200 0.000000 -46.825099 8.705839 1.065065 4.448335 1.886798 5.846501 -63.051117 2.617490 0.535790 18.547323 -3.414251 -8.556679 -15.745678 0.279100 0.000000 -58.837600
18.950051 16.570039 2.206846 87.234324 -87.030365 -32.564959 -8.204073 -0.558689 4.029834 -6.430380 -10.876302 -63.627738 -2.479522 -1.412773 17.193564 4.036063 14.228182 -13.754494 -0.407400 0.000001 -46.756600 8.709577 1.137438 4.634185 1.284092 5.999185 -65.955898 2.579620 0.161188 21.458096 -3.507301 -8.283086 -17.188078 0.535100 0.000000 -58.206800
18.924486 16.457974 2.209659 86.772479 -86.734881 -30.776190 -8.107962 -0.484031 4.292005 -6.214327 -11.830766 -66.584464 -2.453805 -1.149342 20.078931 4.245944 14.202199 -15.419204 -0.842300 -0.000001 -46.615801 8.724738 1.208405 4.846989 0.647812 6.101656 -69.022893 2.532114 -0.250479 24.558003 -3.596410 -7.994032 -18.667010 0.789000 0.000000 -57.431500
18.897585 16.331145 2.213182 86.160405 -86.418225 -28.801186 -8.028415 -0.400448 4.585205 -5.970929 -12.796666 -69.708579 -2.415710 -0.852935 23.125233 4.449576 14.141014 -17.061439 -1.269699 0.000000 -46.359600 8.752265 1.276986 5.088816 -0.019455 6.151402 -72.245596 2.470867 -0.698884 27.842273 -3.682934 -7.702335 -20.172150 1.038700 -0.000000 -56.521500
18.869302 16.189033 2.217501 85.498056 -86.084336 -26.751734 -7.966941 -0.313437 4.907864 -5.689505 -13.768454 -72.980852 -2.358876 -0.524920 26.323436 4.647661 14.062225 -18.668894 -1.685200 -0.000001 -45.947200 8.792945 1.343254 5.359300 -0.711718 6.147031 -75.604955 2.391315 -1.181679 31.298605 -3.769022 -7.423901 -21.693458 1.283700 0.000000 -55.501500
18.839417 16.031557 2.222691 84.846860 -85.740636 -24.705837 -7.923557 -0.229430 5.254846 -5.361026 -14.734996 -76.373285 -2.277405 -0.167331 29.666923 4.840964 13.982714 -20.236391 -2.088300 0.000000 -45.351501 8.847173 1.408071 5.654957 -1.417338 6.088718 -79.067446 2.289201 -1.694323 34.906803 -3.857109 -7.175838 -23.220636 1.524999 0.000000 -54.413000
18.808012 15.859276 2.228802 84.234209 -85.397058 -22.715573 -7.896779 -0.155581 5.617045 -4.980199 -15.679050 -79.846367 -2.166615 0.217019 33.148342 5.029809 13.917516 -21.764658 -2.481700 -0.000000 -44.555699 8.914378 1.472797 5.969157 -2.118921 5.980048 -82.584329 2.160884 -2.229824 38.637070 -3.949509 -6.975071 -24.741873 1.765100 -0.000000 -53.317600
18.775119 15.673241 2.235876 83.661064 -85.065441 -20.808112 -7.883913 -0.098903 5.982928 -4.545170 -16.580992 -83.353030 -2.022873 0.624126 36.757892 5.214354 13.881779 -23.256242 -2.870200 -0.000000 -43.572900 8.993082 1.539259 6.292796 -2.794758 5.827829 -86.098830 2.003961 -2.779716 42.454412 -4.048136 -6.836242 -26.245857 2.007500 0.000000 -52.285400
18.741031 15.475160 2.243975 83.111427 -84.758311 -18.995367 -7.881557 -0.065776 6.339412 -4.058678 -17.419338 -86.838596 -1.844255 1.048603 40.479193 5.394091 13.889085 -24.713142 -3.259200 0.000001 -42.441400 9.080757 1.609371 6.614882 -3.420997 5.642644 -89.547284 1.817317 -3.334335 46.318433 -4.154036 -6.770465 -27.720407 2.256100 0.000000 -51.391800
18.705549 15.267281 2.253085 82.554643 -84.487139 -17.274513 -7.885903 -0.061332 6.673659 -3.527087 -18.174272 -90.247563 -1.630535 1.484011 44.289727 5.567989 13.950909 -26.135649 -3.653699 -0.000000 -41.222200 9.173926 1.685150 6.923722 -3.974999 5.437856 -92.868880 1.601179 -3.884251 50.188592 -4.267144 -6.783786 -29.153761 2.514600 -0.000000 -50.704100
18.668971 15.052246 2.263150 81.964600 -84.260851 -15.641439 -7.893615 -0.088311 6.975296 -2.961633 -18.830320 -93.523962 -1.383440 1.922570 48.156598 5.734640 14.076653 -27.519178 -4.057700 0.000000 -40.003500 9.268939 1.768224 7.208608 -4.438544 5.227542 -96.007382 1.357067 -4.420426 54.024227 -4.386105 -6.876430 -30.534652 2.785700 -0.000001 -50.273001
18.631476 14.833382 2.274058 81.319620 -84.085845 -14.098637 -7.901779 -0.148584 7.232644 -2.380211 -19.375061 -96.609162 -1.106416 2.356692 52.042219 5.891595 14.271443 -28.855376 -4.473400 -0.000000 -38.881300 9.361195 1.861038 7.456161 -4.797749 5.024111 -98.906480 1.087882 -4.934972 57.786608 -4.507595 -7.041494 -31.852285 3.070200 0.000000 -50.137400
18.592157 14.612951 2.285704 80.594275 -83.958814 -12.615622 -7.909218 -0.236477 7.453532 -1.791581 -19.816631 -99.482120 -0.804443 2.777365 55.897142 6.039196 14.536596 -30.137849 -4.901700 0.000001 -37.909699 9.450114 1.961671 7.670192 -5.055997 4.834935 -101.554998 0.796577 -5.422276 61.444736 -4.629218 -7.269565 -33.097320 3.366800 0.000000 -50.287700
18.551849 14.394650 2.297858 79.781632 -83.880274 -11.203014 -7.914812 -0.351535 7.626867 -1.220279 -20.151529 -102.092089 -0.483025 3.179022 59.681634 6.173818 14.867493 -31.352201 -5.340400 -0.000000 -37.195400 9.531134 2.073155 7.836596 -5.210880 4.665150 -103.908597 0.488353 -5.877530 64.967732 -4.745333 -7.542336 -34.263604 3.672100 -0.000001 -50.726300
18.509927 14.181113 2.310250 78.886313 -83.840811 -9.859156 -7.918858 -0.487293 7.758222 -0.682272 -20.394478 -104.421074 -0.148788 3.555688 63.349645 6.294981 15.255692 -32.491824 -5.787400 0.000000 -36.771000 9.603933 2.194261 7.957136 -5.275427 4.512126 -105.960098 0.168137 -6.297801 68.332126 -4.851962 -7.841153 -35.348527 3.980900 0.000000 -51.415100
18.466188 13.974834 2.322636 77.915396 -83.829270 -8.586019 -7.921825 -0.637545 7.852113 -0.193257 -20.562691 -106.457439 0.191657 3.903401 66.862446 6.402191 15.688841 -33.552583 -6.239100 0.000000 -36.653000 9.668477 2.323704 8.033837 -5.265449 4.369693 -107.708670 -0.158607 -6.681664 71.519323 -4.945762 -8.146730 -36.354369 4.287200 0.000000 -52.304300
18.420607 13.777879 2.334740 76.876931 -83.833905 -7.381398 -7.924658 -0.795911 7.914854 0.235111 -20.674544 -108.199505 0.531726 4.219670 70.187695 6.495571 16.151688 -34.535732 -6.692000 -0.000001 -36.829800 9.725672 2.459007 8.071445 -5.198020 4.230503 -109.160701 -0.486146 -7.028597 74.515210 -5.024820 -8.441305 -37.289041 4.585600 0.000000 -53.333300
18.372987 13.592079 2.346011 75.851871 -83.837473 -6.318411 -7.927722 -0.957074 7.948780 0.581554 -20.752219 -109.637798 0.863517 4.503266 73.297956 6.575982 16.627992 -35.453209 -7.145200 -0.000000 -37.222800 9.777218 2.598091 8.074100 -5.096134 4.080523 -110.320538 -0.809252 -7.338366 77.310259 -5.088225 -8.709477 -38.167122 4.871700 -0.000000 -54.424900
18.322979 13.418229 2.356633 74.771081 -83.834196 -5.312096 -7.932516 -1.115361 7.965185 0.853342 -20.808379 -110.794850 1.182845 4.754019 76.179287 6.644546 17.103177 -36.310434 -7.593899 0.000000 -37.874301 9.824807 2.736140 8.051218 -4.967736 3.920479 -111.209072 -1.122511 -7.612301 79.900674 -5.139409 -8.947612 -39.007199 5.146000 -0.000001 -55.529400
18.270504 13.257592 2.365706 73.786022 -83.804970 -4.509145 -7.938525 -1.267202 7.962667 1.022404 -20.865034 -111.659344 1.481110 4.973097 78.816459 6.703509 17.562915 -37.134414 -8.042100 0.000000 -38.614400 9.871067 2.870929 8.007507 -4.838653 3.734210 -111.832179 -1.421995 -7.850628 82.283887 -5.180572 -9.151672 -39.831680 5.409100 -0.000000 -56.556100
18.215434 13.110549 2.373094 72.896617 -83.744445 -3.897917 -7.946644 -1.409023 7.947804 1.088299 -20.931031 -112.244827 1.753576 5.162041 81.205706 6.754979 17.996098 -37.944591 -8.490900 -0.000001 -39.379400 9.917896 2.997918 7.950828 -4.716074 3.523914 -112.204989 -1.703768 -8.054282 84.460620 -5.217570 -9.330712 -40.661932 5.667300 -0.000001 -57.448900
18.157550 12.977447 2.378435 72.138159 -83.647812 -3.505976 -7.957364 -1.538025 7.924087 1.045611 -21.012761 -112.560396 1.995750 5.323113 83.346618 6.801214 18.395608 -38.759096 -8.942400 -0.000000 -40.099500 9.967035 3.113741 7.887349 -4.608393 3.291144 -112.340333 -1.965062 -8.224114 86.433351 -5.256327 -9.499366 -41.514571 5.928500 -0.000000 -58.165300
18.096788 12.858354 2.381519 71.533504 -83.515064 -3.344016 -7.971749 -1.651665 7.895251 0.893794 -21.110471 -112.617086 2.204319 5.458533 85.241946 6.844050 18.756733 -39.590720 -9.397500 0.000000 -40.717500 10.019855 3.215280 7.822574 -4.519065 3.042636 -112.250909 -2.203640 -8.360683 88.204190 -5.302650 -9.676877 -42.398247 6.202200 0.000000 -58.682500
18.032651 12.753501 2.382119 71.085135 -83.350891 -3.406960 -7.990919 -1.747787 7.864689 0.637303 -21.218001 -112.428721 2.377557 5.570707 86.896862 6.884471 19.077352 -40.441171 -9.854101 0.000000 -41.203900 10.076783 3.300207 7.760655 -4.447192 2.789088 -111.949445 -2.417982 -8.464511 89.774918 -5.361068 -9.884141 -43.309909 6.497201 0.000000 -59.002800
17.965216 12.663032 2.380127 70.793253 -83.162947 -3.684178 -8.016217 -1.824554 7.835655 0.285469 -21.324980 -112.011276 2.514982 5.661517 88.316415 6.922596 19.357376 -41.300013 -10.306300 0.000001 -41.561800 10.137866 3.366814 7.704881 -4.390006 2.542535 -111.449754 -2.607020 -8.535917 91.145840 -5.433955 -10.139683 -44.234355 6.819800 0.000000 -59.150500
